<svg width="270" height="34" viewBox="0 0 270 34" fill="none" xmlns="http://www.w3.org/2000/svg">
<path d="M15.147 23.456C13.579 23.456 12.211 23.2 11.043 22.688C9.875 22.16 8.907 21.456 8.139 20.576C7.387 19.696 6.827 18.72 6.459 17.648C6.091 16.576 5.907 15.504 5.907 14.432V13.904C5.907 12.8 6.091 11.72 6.459 10.664C6.827 9.608 7.379 8.648 8.115 7.784C8.867 6.92 9.795 6.232 10.899 5.72C12.019 5.208 13.307 4.952 14.763 4.952C16.347 4.952 17.747 5.248 18.963 5.84C20.179 6.416 21.155 7.224 21.891 8.264C22.627 9.288 23.051 10.48 23.163 11.84H19.227C19.131 11.2 18.875 10.64 18.459 10.16C18.059 9.68 17.539 9.304 16.899 9.032C16.275 8.76 15.563 8.624 14.763 8.624C13.995 8.624 13.307 8.76 12.699 9.032C12.107 9.304 11.595 9.688 11.163 10.184C10.747 10.68 10.427 11.272 10.203 11.96C9.995 12.632 9.891 13.376 9.891 14.192C9.891 15.04 10.003 15.816 10.227 16.52C10.467 17.208 10.811 17.808 11.259 18.32C11.707 18.816 12.259 19.2 12.915 19.472C13.587 19.744 14.331 19.88 15.147 19.88C16.235 19.88 17.179 19.656 17.979 19.208C18.779 18.76 19.355 18.168 19.707 17.432L19.227 20.12V15.944H22.851V19.688C22.099 20.904 21.059 21.84 19.731 22.496C18.419 23.136 16.891 23.456 15.147 23.456ZM14.643 16.712V13.88H24.291V16.712H14.643ZM38.3552 23L32.3072 14.816H29.8832L37.2272 5.48H41.7392L35.1392 13.856L35.0912 12.152L43.1072 23H38.3552ZM26.8352 23V5.48H30.7712V23H26.8352ZM42.936 13.664V11.48H43.68C44.112 11.48 44.456 11.416 44.712 11.288C44.984 11.16 45.184 10.936 45.312 10.616C45.44 10.28 45.504 9.824 45.504 9.248V7.496L46.224 8.984C46.112 9.08 45.952 9.16 45.744 9.224C45.536 9.272 45.304 9.296 45.048 9.296C44.488 9.296 44.016 9.128 43.632 8.792C43.248 8.44 43.056 7.952 43.056 7.328C43.056 6.736 43.24 6.24 43.608 5.84C43.976 5.424 44.504 5.216 45.192 5.216C45.64 5.216 46.048 5.32 46.416 5.528C46.8 5.736 47.104 6.088 47.328 6.584C47.568 7.08 47.688 7.752 47.688 8.6V8.96C47.688 10.096 47.52 11.008 47.184 11.696C46.864 12.384 46.392 12.888 45.768 13.208C45.144 13.512 44.376 13.664 43.464 13.664H42.936ZM54.3456 23.408C52.4736 23.408 51.0096 23.024 49.9536 22.256C48.8976 21.488 48.3376 20.408 48.2736 19.016H51.6816C51.7456 19.432 51.9936 19.808 52.4256 20.144C52.8736 20.464 53.5376 20.624 54.4176 20.624C55.0896 20.624 55.6416 20.512 56.0736 20.288C56.5216 20.048 56.7456 19.712 56.7456 19.28C56.7456 18.896 56.5776 18.592 56.2416 18.368C55.9056 18.128 55.3056 17.96 54.4416 17.864L53.4096 17.768C51.8256 17.608 50.6336 17.168 49.8336 16.448C49.0496 15.728 48.6576 14.808 48.6576 13.688C48.6576 12.76 48.8896 11.984 49.3536 11.36C49.8176 10.736 50.4576 10.264 51.2736 9.944C52.1056 9.624 53.0496 9.464 54.1056 9.464C55.8016 9.464 57.1696 9.84 58.2096 10.592C59.2496 11.328 59.7936 12.4 59.8416 13.808H56.4336C56.3696 13.376 56.1456 13.016 55.7616 12.728C55.3776 12.424 54.8096 12.272 54.0576 12.272C53.4656 12.272 52.9936 12.384 52.6416 12.608C52.2896 12.832 52.1136 13.136 52.1136 13.52C52.1136 13.888 52.2656 14.168 52.5696 14.36C52.8736 14.552 53.3696 14.688 54.0576 14.768L55.0896 14.864C56.7056 15.04 57.9616 15.488 58.8576 16.208C59.7536 16.928 60.2016 17.896 60.2016 19.112C60.2016 19.992 59.9616 20.76 59.4816 21.416C59.0016 22.056 58.3216 22.552 57.4416 22.904C56.5616 23.24 55.5296 23.408 54.3456 23.408ZM70.8144 16.904V14.84H74.7264C75.5584 14.84 76.2464 14.68 76.7904 14.36C77.3344 14.024 77.7424 13.576 78.0144 13.016C78.3024 12.456 78.4464 11.832 78.4464 11.144C78.4464 10.44 78.3024 9.808 78.0144 9.248C77.7424 8.688 77.3344 8.248 76.7904 7.928C76.2464 7.608 75.5584 7.448 74.7264 7.448H70.8144V5.384H74.2944C75.7344 5.384 76.9344 5.616 77.8944 6.08C78.8704 6.528 79.6064 7.168 80.1024 8C80.5984 8.832 80.8464 9.816 80.8464 10.952V11.336C80.8464 12.456 80.5984 13.44 80.1024 14.288C79.6064 15.12 78.8704 15.768 77.8944 16.232C76.9344 16.68 75.7344 16.904 74.2944 16.904H70.8144ZM68.9424 23V5.384H71.2944V23H68.9424ZM89.6276 23.432C88.5076 23.432 87.5236 23.24 86.6756 22.856C85.8276 22.472 85.1076 21.968 84.5156 21.344C83.9396 20.704 83.4996 19.992 83.1956 19.208C82.9076 18.424 82.7636 17.624 82.7636 16.808V16.376C82.7636 15.56 82.9156 14.76 83.2196 13.976C83.5236 13.176 83.9716 12.464 84.5636 11.84C85.1556 11.2 85.8756 10.696 86.7236 10.328C87.5716 9.944 88.5396 9.752 89.6276 9.752C90.7156 9.752 91.6836 9.944 92.5316 10.328C93.3796 10.696 94.0996 11.2 94.6916 11.84C95.2836 12.464 95.7316 13.176 96.0356 13.976C96.3396 14.76 96.4916 15.56 96.4916 16.376V16.808C96.4916 17.624 96.3396 18.424 96.0356 19.208C95.7476 19.992 95.3076 20.704 94.7156 21.344C94.1396 21.968 93.4276 22.472 92.5796 22.856C91.7316 23.24 90.7476 23.432 89.6276 23.432ZM89.6276 21.368C90.5876 21.368 91.4036 21.16 92.0756 20.744C92.7636 20.312 93.2836 19.736 93.6356 19.016C94.0036 18.296 94.1876 17.488 94.1876 16.592C94.1876 15.68 94.0036 14.864 93.6356 14.144C93.2676 13.424 92.7396 12.856 92.0516 12.44C91.3796 12.024 90.5716 11.816 89.6276 11.816C88.6996 11.816 87.8916 12.024 87.2036 12.44C86.5156 12.856 85.9876 13.424 85.6196 14.144C85.2516 14.864 85.0676 15.68 85.0676 16.592C85.0676 17.488 85.2436 18.296 85.5956 19.016C85.9636 19.736 86.4836 20.312 87.1556 20.744C87.8436 21.16 88.6676 21.368 89.6276 21.368ZM99.9424 23V10.184H101.766V15.464H101.67C101.67 13.592 102.078 12.224 102.894 11.36C103.726 10.48 104.966 10.04 106.614 10.04H107.046V12.104H106.23C104.95 12.104 103.966 12.448 103.278 13.136C102.59 13.808 102.246 14.784 102.246 16.064V23H99.9424ZM115.013 23.144C114.053 23.144 113.221 23.008 112.517 22.736C111.829 22.464 111.293 22 110.909 21.344C110.541 20.672 110.357 19.768 110.357 18.632V6.296H112.565V18.92C112.565 19.608 112.749 20.144 113.117 20.528C113.501 20.896 114.037 21.08 114.725 21.08H116.981V23.144H115.013ZM108.149 11.912V10.184H116.981V11.912H108.149ZM120.575 23V9.536C120.575 8.112 120.951 7.064 121.703 6.392C122.455 5.72 123.559 5.384 125.015 5.384H126.599V7.304H124.631C124.039 7.304 123.583 7.472 123.263 7.808C122.943 8.128 122.783 8.576 122.783 9.152V23H120.575ZM118.799 12.056V10.328H126.839V12.056H118.799ZM135.143 23.432C134.023 23.432 133.039 23.24 132.191 22.856C131.343 22.472 130.623 21.968 130.031 21.344C129.455 20.704 129.015 19.992 128.711 19.208C128.423 18.424 128.279 17.624 128.279 16.808V16.376C128.279 15.56 128.431 14.76 128.735 13.976C129.039 13.176 129.487 12.464 130.079 11.84C130.671 11.2 131.391 10.696 132.239 10.328C133.087 9.944 134.055 9.752 135.143 9.752C136.231 9.752 137.199 9.944 138.047 10.328C138.895 10.696 139.615 11.2 140.207 11.84C140.799 12.464 141.247 13.176 141.551 13.976C141.855 14.76 142.007 15.56 142.007 16.376V16.808C142.007 17.624 141.855 18.424 141.551 19.208C141.263 19.992 140.823 20.704 140.231 21.344C139.655 21.968 138.943 22.472 138.095 22.856C137.247 23.24 136.263 23.432 135.143 23.432ZM135.143 21.368C136.103 21.368 136.919 21.16 137.591 20.744C138.279 20.312 138.799 19.736 139.151 19.016C139.519 18.296 139.703 17.488 139.703 16.592C139.703 15.68 139.519 14.864 139.151 14.144C138.783 13.424 138.255 12.856 137.567 12.44C136.895 12.024 136.087 11.816 135.143 11.816C134.215 11.816 133.407 12.024 132.719 12.44C132.031 12.856 131.503 13.424 131.135 14.144C130.767 14.864 130.583 15.68 130.583 16.592C130.583 17.488 130.759 18.296 131.111 19.016C131.479 19.736 131.999 20.312 132.671 20.744C133.359 21.16 134.183 21.368 135.143 21.368ZM145.602 23V5.48H147.906V23H145.602ZM143.826 7.304V5.48H147.906V7.304H143.826ZM152.949 23V10.184H155.253V23H152.949ZM150.981 12.008V10.184H155.253V12.008H150.981ZM153.597 8.12C153.085 8.12 152.701 7.984 152.445 7.712C152.205 7.44 152.085 7.096 152.085 6.68C152.085 6.264 152.205 5.92 152.445 5.648C152.701 5.376 153.085 5.24 153.597 5.24C154.109 5.24 154.485 5.376 154.725 5.648C154.981 5.92 155.109 6.264 155.109 6.68C155.109 7.096 154.981 7.44 154.725 7.712C154.485 7.984 154.109 8.12 153.597 8.12ZM165.612 23.432C164.492 23.432 163.508 23.24 162.66 22.856C161.812 22.472 161.092 21.968 160.5 21.344C159.924 20.704 159.484 19.992 159.18 19.208C158.892 18.424 158.748 17.624 158.748 16.808V16.376C158.748 15.56 158.9 14.76 159.204 13.976C159.508 13.176 159.956 12.464 160.548 11.84C161.14 11.2 161.86 10.696 162.708 10.328C163.556 9.944 164.524 9.752 165.612 9.752C166.7 9.752 167.668 9.944 168.516 10.328C169.364 10.696 170.084 11.2 170.676 11.84C171.268 12.464 171.716 13.176 172.02 13.976C172.324 14.76 172.476 15.56 172.476 16.376V16.808C172.476 17.624 172.324 18.424 172.02 19.208C171.732 19.992 171.292 20.704 170.7 21.344C170.124 21.968 169.412 22.472 168.564 22.856C167.716 23.24 166.732 23.432 165.612 23.432ZM165.612 21.368C166.572 21.368 167.388 21.16 168.06 20.744C168.748 20.312 169.268 19.736 169.62 19.016C169.988 18.296 170.172 17.488 170.172 16.592C170.172 15.68 169.988 14.864 169.62 14.144C169.252 13.424 168.724 12.856 168.036 12.44C167.364 12.024 166.556 11.816 165.612 11.816C164.684 11.816 163.876 12.024 163.188 12.44C162.5 12.856 161.972 13.424 161.604 14.144C161.236 14.864 161.052 15.68 161.052 16.592C161.052 17.488 161.228 18.296 161.58 19.016C161.948 19.736 162.468 20.312 163.14 20.744C163.828 21.16 164.652 21.368 165.612 21.368Z" fill="white"/>
<line y1="33.5" x2="187.5" y2="33.5" stroke="white"/>
<ellipse cx="179.344" cy="25.5" rx="2.34375" ry="2.5" fill="#F13024"/>
</svg>
